:SAMPLES-PER-SECOND 30
:FULLY-SPECIFIED
:DEGREES
36
root  -4.04138 37.9719 -6.05465 168.701 -64.5138 -173.523
RightUpLeg  -25.2133 -17.7333 4.42469
RightLeg  25.5186 -2.34196 -1.44119
RightFoot  2.6745 0.357638 -2.78483
RightToes  0.00048216 0.542163 -0.142577
Spine  15.7994 -5.29261 0.530152
Spine1  11.3495 -8.41366 9.30269
HEad  6.20191 16.0098 -10.3917
LeftShoulder1  7.51407 -11.5738 -43.3453
LeftArm  4.60968 -3.8605 -36.6667
LeftForeArm  31.0402 -35.2977 -6.10754
LeftHand  -0.25398 0.0180481 5.50724
RightShoulder  4.50937 8.33342 32.1533
RightArm  -14.6696 -23.9471 38.4929
RightForeArm  16.0333 9.7542 4.7935
RightHand  -0.202397 -3.2642 -9.87885
LeftUpLeg  24.5156 16.7247 12.9298
LeftLeg  20.5385 9.3775 4.45922
LeftFoot  -18.2489 -1.2053 -21.9257
LeftToes  1.06248e-005 4.65855e-005 -8.185e-006
37
root  -5.14928 37.8751 -6.87668 167.631 -63.2071 -172.352
RightUpLeg  -24.8762 -17.0692 5.35238
RightLeg  29.3172 -2.08627 -1.50911
RightFoot  -0.443316 0.42958 -4.5237
RightToes  0.00048216 0.542163 -0.142577
Spine  16.4135 -5.37091 2.43211
Spine1  11.6866 -7.92173 8.63507
HEad  6.67688 16.4062 -10.4432
LeftShoulder1  7.5028 -11.6007 -43.195
LeftArm  3.90464 -1.85485 -35.9135
LeftForeArm  28.3133 -32.4069 -5.53502
LeftHand  -0.25398 0.0180481 5.50724
RightShoulder  4.55985 8.45991 32.1724
RightArm  -17.1686 -20.8524 38.0476
RightForeArm  9.20086 10.4939 4.64966
RightHand  -0.389464 -1.90342 -12.6926
LeftUpLeg  20.4344 13.5814 12.1544
LeftLeg  31.0188 13.3546 8.94949
LeftFoot  -10.968 0.0583591 -21.4201
LeftToes  1.06248e-005 4.65855e-005 -8.185e-006
38
root  -6.17889 37.8331 -7.6454 166.726 -62.2348 -171.185
RightUpLeg  -24.1866 -16.3681 6.12985
RightLeg  32.0405 -2.34475 -1.83769
RightFoot  -3.36923 0.3438 -5.21192
RightToes  0.00048216 0.542163 -0.142577
Spine  16.9079 -5.37903 4.60271
Spine1  11.9179 -7.18615 7.72084
HEad  7.34854 16.2773 -10.2165
LeftShoulder1  7.54179 -11.7045 -43.1193
LeftArm  3.74861 0.089567 -35.2434
LeftForeArm  26.2291 -29.287 -4.91141
LeftHand  -0.25398 0.0180481 5.50724
RightShoulder  4.53774 8.49659 31.8707
RightArm  -17.7153 -17.5007 37.9974
RightForeArm  4.54564 12.1408 4.86204
RightHand  -0.587696 -0.468301 -13.843
LeftUpLeg  13.6434 11.3239 11.3652
LeftLeg  43.7844 14.0889 14.3088
LeftFoot  -0.0560045 1.1856 -12.3434
LeftToes  1.06248e-005 4.65855e-005 -8.185e-006
39
root  -7.10806 37.7618 -8.31414 164.983 -61.7583 -169.206
RightUpLeg  -23.2438 -15.467 6.94818
RightLeg  34.2741 -2.8944 -2.38573
RightFoot  -6.15592 0.169984 -4.644
RightToes  0.00048216 0.542163 -0.142577
Spine  17.32 -5.50774 7.40785
Spine1  12.5349 -6.33637 6.76475
HEad  7.83741 15.6462 -9.95013
LeftShoulder1  7.71427 -11.9491 -43.4248
LeftArm  3.95937 1.6925 -34.4188
LeftForeArm  24.6699 -26.4196 -4.35037
LeftHand  -0.25398 0.0180481 5.50724
RightShoulder  4.54865 8.63084 31.5404
RightArm  -15.721 -13.9388 37.67
RightForeArm  0.919016 14.983 5.19029
RightHand  -0.716814 0.410565 -14.3897
LeftUpLeg  6.00421 9.2579 11.068
LeftLeg  54.8172 10.2266 15.5123
LeftFoot  7.34897 0.586776 -3.50538
LeftToes  1.06248e-005 4.65855e-005 -8.185e-006
40
root  -8.06996 37.8535 -8.98993 163.783 -61.5301 -168.315
RightUpLeg  -20.9975 -14.8078 7.03018
RightLeg  35.1449 -3.22867 -2.71306
RightFoot  -8.45749 0.0427656 -4.01034
RightToes  0.00048216 0.542163 -0.142577
Spine  17.5001 -5.37358 9.34423
Spine1  13.548 -5.45338 5.86359
HEad  8.18792 14.7805 -9.76169
LeftShoulder1  7.93408 -12.2197 -43.9214
LeftArm  4.36817 3.13673 -33.5604
LeftForeArm  23.1894 -24.1018 -3.95494
LeftHand  -0.25398 0.0180481 5.50724
RightShoulder  4.62554 8.84896 31.4999
RightArm  -11.9931 -9.95395 36.6896
RightForeArm  -2.17118 18.3551 5.22762
RightHand  -0.892516 1.26983 -15.6343
LeftUpLeg  -0.564062 7.85146 10.629
LeftLeg  62.4757 5.85771 12.6481
LeftFoot  7.8327 0.256691 -1.81742
LeftToes  1.06248e-005 4.65855e-005 -8.185e-006
41
root  -9.09853 38.1405 -9.71981 163.981 -61.2067 -169.177
RightUpLeg  -17.6968 -14.5243 6.29716
RightLeg  34.5541 -3.25467 -2.6809
RightFoot  -10.1117 -0.0269581 -3.87737
RightToes  0.00048216 0.542163 -0.142577
Spine  17.4228 -4.77779 9.93702
Spine1  14.4615 -4.48538 5.1978
HEad  8.75768 13.9826 -9.64659
LeftShoulder1  8.08113 -12.3739 -44.3212
LeftArm  4.4642 4.90719 -32.8403
LeftForeArm  22.1395 -22.3607 -3.86643
LeftHand  -0.25398 0.0180481 5.50724
RightShoulder  4.68554 8.91464 31.7879
RightArm  -8.49582 -5.56085 35.2209
RightForeArm  -3.3616 21.2 5.08541
RightHand  -1.16723 2.47258 -17.3757
LeftUpLeg  -6.0325 7.62315 9.78172
LeftLeg  66.6509 3.42369 9.45129
LeftFoot  5.08218 0.609555 -4.45157
LeftToes  1.06248e-005 4.65855e-005 -8.185e-006
42
root  -10.1509 38.4799 -10.4703 164.891 -60.7543 -170.572
RightUpLeg  -14.248 -14.4209 5.33016
RightLeg  33.1656 -2.98836 -2.37055
RightFoot  -11.5226 -0.0827564 -3.54326
RightToes  0.00048216 0.542163 -0.142577
Spine  17.1015 -3.93529 10.0354
Spine1  14.8186 -3.44133 4.77713
HEad  9.64935 13.3936 -9.67945
LeftShoulder1  8.14832 -12.4015 -44.6256
LeftArm  3.81991 7.18737 -32.166
LeftForeArm  22.0985 -21.0589 -4.08871
LeftHand  -0.25398 0.0180481 5.50724
RightShoulder  4.66182 8.75033 32.1011
RightArm  -6.60494 -1.38761 33.8372
RightForeArm  -2.21071 23.4392 5.13401
RightHand  -1.39872 3.45199 -18.5376
LeftUpLeg  -11.0679 8.51679 8.77543
LeftLeg  67.6319 2.91231 8.53199
LeftFoot  3.12551 0.733641 -5.89766
LeftToes  1.06248e-005 4.65855e-005 -8.185e-006
43
root  -11.2203 38.8045 -11.2269 165.792 -60.5265 -171.754
RightUpLeg  -10.7094 -14.5742 4.30746
RightLeg  31.2403 -2.44585 -1.86224
RightFoot  -12.8712 -0.12402 -2.77154
RightToes  0.00048216 0.542163 -0.142577
Spine  16.5495 -3.11452 10.1126
Spine1  14.7464 -2.47058 4.2639
HEad  10.6058 12.9122 -9.86102
LeftShoulder1  8.17986 -12.3892 -44.8421
LeftArm  2.85379 9.62579 -31.472
LeftForeArm  22.5793 -19.9734 -4.35295
LeftHand  -0.25398 0.0180481 5.50724
RightShoulder  4.57595 8.53106 32.0801
RightArm  -6.76507 1.79297 33.0739
RightForeArm  -0.239123 25.761 5.53721
RightHand  -1.46911 3.74593 -18.8349
LeftUpLeg  -15.599 9.98998 7.56303
LeftLeg  65.8297 3.59968 9.40201
LeftFoot  1.75557 0.49369 -4.36608
LeftToes  1.06248e-005 4.65855e-005 -8.185e-006
44
root  -12.3087 39.0965 -11.9791 166.609 -60.6878 -172.854
RightUpLeg  -6.99682 -15.1839 3.11317
RightLeg  29.0445 -1.76527 -1.31656
RightFoot  -13.9561 -0.148585 -2.34932
RightToes  0.00048216 0.542163 -0.142577
Spine  15.8089 -2.41439 10.2015
Spine1  14.7584 -1.60833 3.36767
HEad  11.4069 12.327 -9.93937
LeftShoulder1  8.18779 -12.4032 -44.8462
LeftArm  1.59858 11.7896 -30.818
LeftForeArm  23.32 -18.8537 -4.65013
LeftHand  -0.25398 0.0180481 5.50724
RightShoulder  4.48144 8.39294 31.7259
RightArm  -8.06682 3.87235 32.9908
RightForeArm  0.157905 28.4246 6.14572
RightHand  -1.48607 3.73285 -19.068
LeftUpLeg  -19.132 11.5937 6.07732
LeftLeg  61.3119 4.51484 9.482
LeftFoot  -0.602715 0.311867 -3.32498
LeftToes  1.06248e-005 4.65855e-005 -8.185e-006
45
root  -13.4116 39.3485 -12.7147 167.577 -60.9695 -174.047
RightUpLeg  -3.35539 -16.058 1.76214
RightLeg  26.8164 -1.03652 -0.806155
RightFoot  -14.7937 -0.173483 -2.43337
RightToes  0.00048216 0.542163 -0.142577
Spine  14.9022 -1.75476 10.2724
Spine1  14.9553 -0.748417 2.15506
HEad  12.0601 11.5816 -9.707
LeftShoulder1  8.18876 -12.444 -44.7321
LeftArm  0.0471998 13.6659 -30.1299
LeftForeArm  24.1006 -17.7183 -4.93827
LeftHand  -0.25398 0.0180481 5.50724
RightShoulder  4.40354 8.30732 31.3367
RightArm  -9.41344 5.36108 33.2118
RightForeArm  -1.24123 30.9411 6.84511
RightHand  -1.58652 3.96776 -19.8233
LeftUpLeg  -21.6323 13.4901 4.35958
LeftLeg  53.9955 4.83364 7.61937
LeftFoot  -2.47764 0.338998 -4.16917
LeftToes  1.06248e-005 4.65855e-005 -8.185e-006
46
root  -14.5273 39.5179 -13.4241 168.496 -61.219 -174.883
RightUpLeg  -0.0818941 -16.6344 0.542503
RightLeg  24.738 -0.475183 -0.267724
RightFoot  -15.7578 -0.185744 -2.07728
RightToes  0.00048216 0.542163 -0.142577
Spine  13.8966 -1.14734 10.491
Spine1  15.0023 0.0667849 0.88475
HEad  12.5903 10.8177 -9.32667
LeftShoulder1  8.22203 -12.4868 -44.7966
LeftArm  -1.51071 15.4977 -29.216
LeftForeArm  24.5063 -16.8342 -5.10884
LeftHand  -0.25398 0.0180481 5.50724
RightShoulder  4.34789 8.23991 31.0746
RightArm  -10.2041 6.66919 33.4274
RightForeArm  -2.54921 32.8425 7.41602
RightHand  -1.71572 4.37935 -20.5298
LeftUpLeg  -23.3764 15.8155 2.47732
LeftLeg  44.2828 4.53664 5.12129
LeftFoot  -2.17462 0.398505 -4.80722
LeftToes  1.06248e-005 4.65855e-005 -8.185e-006
